<svg xmlns="http://www.w3.org/2000/svg"  viewBox="0 0 48 48" width="48px" height="48px"><linearGradient id="SVGID_1_" x1="33.746" x2="14.254" y1="14.255" y2="33.746" gradientUnits="userSpaceOnUse"><stop offset="0" stop-color="#fea460"/><stop offset=".033" stop-color="#feaa6a"/><stop offset=".197" stop-color="#fec497"/><stop offset=".362" stop-color="#ffd9bd"/><stop offset=".525" stop-color="#ffeada"/><stop offset=".687" stop-color="#fff5ee"/><stop offset=".846" stop-color="#fffdfb"/><stop offset="1" stop-color="#fff"/></linearGradient><path fill="url(#SVGID_1_)" d="M23.015,42.507L5.493,24.986c-0.544-0.544-0.544-1.426,0-1.969L23.015,5.494c0.544-0.544,1.426-0.544,1.969,0	l17.523,17.522c0.544,0.544,0.544,1.426,0,1.969L24.985,42.507C24.441,43.05,23.559,43.05,23.015,42.507z"/><path fill="none" stroke="#fe7c12" stroke-linecap="round" stroke-linejoin="round" stroke-miterlimit="10" stroke-width="3" d="M28.916,38.576l-3.931,3.932c-0.544,0.543-1.426,0.543-1.97,0L5.493,24.986c-0.544-0.544-0.544-1.426,0-1.969	l9.017-9.018"/><path fill="none" stroke="#fe7c12" stroke-linecap="round" stroke-linejoin="round" stroke-miterlimit="10" stroke-width="3" d="M18.619,9.89l4.396-4.396c0.544-0.544,1.426-0.544,1.969,0l17.523,17.522c0.544,0.544,0.544,1.426,0,1.969	l-9.378,9.379"/><circle cx="24" cy="32.73" r="2.91" fill="#fe7c12"/><circle cx="32.73" cy="24.001" r="2.91" fill="#fe7c12"/><circle cx="24" cy="15.271" r="2.91" fill="#fe7c12"/><line x1="24" x2="24" y1="32.73" y2="15.271" fill="none" stroke="#fe7c12" stroke-linecap="round" stroke-linejoin="round" stroke-miterlimit="10" stroke-width="3"/><line x1="32.73" x2="18.62" y1="24.001" y2="9.891" fill="none" stroke="#fe7c12" stroke-linecap="round" stroke-linejoin="round" stroke-miterlimit="10" stroke-width="3"/></svg>